<svg width="69" height="69" viewBox="0 0 69 69" fill="none" xmlns="http://www.w3.org/2000/svg">
<path d="M65.5846 68.8175C67.0223 68.8175 68.1878 67.6398 68.1878 66.1872C68.1878 64.7345 67.0223 63.5569 65.5846 63.5569C64.1469 63.5569 62.9814 64.7345 62.9814 66.1872C62.9814 67.6398 64.1469 68.8175 65.5846 68.8175Z" fill="#101112"/>
<path d="M38.7717 35.4127L35.0752 39.1477L42.8846 47.0386C43.4052 47.5647 44.0821 47.8277 44.7069 47.8277C45.3316 47.8277 46.0604 47.5647 46.529 47.0386C47.5703 45.9865 47.5703 44.3557 46.529 43.3036L38.7196 35.4127H38.7717Z" fill="#101112"/>
<path d="M13.0015 64.0829C12.3247 64.0829 11.6479 63.8199 11.1793 63.2938C-3.03373 48.9324 -3.03373 25.5754 11.1793 11.214C18.0516 4.27003 27.2145 0.42981 36.9502 0.42981C46.6859 0.42981 55.8489 4.27003 62.7211 11.214C63.7624 12.2661 63.7624 13.8969 62.7211 14.949L14.8757 63.2938C14.3551 63.8199 13.6783 64.0829 13.0536 64.0829H13.0015ZM36.9502 5.6904C28.6202 5.6904 20.7588 8.95196 14.8757 14.949C3.31788 26.6275 2.74518 45.25 13.1056 57.665L57.1505 13.1604C51.5277 8.32069 44.4472 5.6904 36.9502 5.6904Z" fill="#101112"/>
<path d="M55.1724 58.2965C56.6101 58.2965 57.7756 57.1189 57.7756 55.6662C57.7756 54.2135 56.6101 53.0359 55.1724 53.0359C53.7348 53.0359 52.5693 54.2135 52.5693 55.6662C52.5693 57.1189 53.7348 58.2965 55.1724 58.2965Z" fill="#101112"/>
</svg>
