<svg width="157" height="158" viewBox="0 0 157 158" fill="none" xmlns="http://www.w3.org/2000/svg">
<path d="M33.8406 142.036C33.1638 142.036 32.487 141.773 32.0184 141.247L0.780937 109.683C-0.260312 108.631 -0.260312 107 0.780937 105.948L32.0184 74.3845C33.0597 73.3324 34.6736 73.3324 35.7148 74.3845L66.9523 105.948C67.9936 107 67.9936 108.631 66.9523 109.683L35.7148 141.247C35.1942 141.773 34.5174 142.036 33.8927 142.036H33.8406ZM6.29955 107.842L33.8406 135.67L61.3816 107.842L33.8406 80.0134L6.29955 107.842Z" fill="#101112"/>
<path d="M18.2223 157.818C17.5454 157.818 16.8686 157.555 16.4001 157.028C15.3588 155.976 15.3588 154.346 16.4001 153.293L63.2563 105.948C64.2975 104.896 65.9114 104.896 66.9527 105.948C67.9939 107 67.9939 108.631 66.9527 109.683L20.0965 157.028C19.5759 157.555 18.8991 157.818 18.2743 157.818H18.2223Z" fill="#101112"/>
<path d="M10.4127 134.145C9.73587 134.145 9.05907 133.882 8.59051 133.356C7.54926 132.303 7.54926 130.673 8.59051 129.621L47.6373 90.1662C48.6785 89.114 50.2925 89.114 51.3337 90.1662C52.375 91.2183 52.375 92.8491 51.3337 93.9012L12.2869 133.356C11.7663 133.882 11.0895 134.145 10.4648 134.145H10.4127Z" fill="#101112"/>
<path d="M49.4596 126.254C48.7828 126.254 48.106 125.991 47.6374 125.465L16.4001 93.9012C15.3588 92.8491 15.3588 91.2183 16.4001 90.1662C17.4413 89.114 19.0552 89.114 20.0965 90.1662L51.3338 121.73C52.3751 122.782 52.3751 124.413 51.3338 125.465C50.8132 125.991 50.1364 126.254 49.5117 126.254H49.4596Z" fill="#101112"/>
<path d="M57.2692 102.581C56.5923 102.581 55.9155 102.318 55.447 101.792C54.4057 100.74 54.4057 99.1094 55.447 98.0572L60.6533 92.7967C61.6945 91.7445 63.3085 91.7445 64.3498 92.7967C65.391 93.8488 65.391 95.4796 64.3498 96.5317L59.1434 101.792C58.6228 102.318 57.946 102.581 57.3212 102.581H57.2692Z" fill="#101112"/>
<path d="M41.651 86.7997C40.9742 86.7997 40.2974 86.5367 39.8288 86.0106C38.7875 84.9585 38.7875 83.3277 39.8288 82.2756L45.0351 77.015C46.0763 75.9629 47.6902 75.9629 48.7315 77.015C49.7727 78.0672 49.7727 79.6979 48.7315 80.7501L43.5252 86.0106C43.0046 86.5367 42.3278 86.7997 41.703 86.7997H41.651Z" fill="#101112"/>
<path d="M93.7125 65.7573C93.0357 65.7573 92.3589 65.4942 91.8903 64.9682C90.8491 63.916 90.8491 62.2853 91.8903 61.2331L97.0966 55.9726C98.1378 54.9204 99.7518 54.9204 100.793 55.9726C101.834 57.0247 101.834 58.6555 100.793 59.7076L95.5868 64.9682C95.0661 65.4942 94.3893 65.7573 93.7646 65.7573H93.7125Z" fill="#101112"/>
<path d="M78.0943 49.9756C77.4175 49.9756 76.7407 49.7126 76.2722 49.1866C75.2309 48.1344 75.2309 46.5037 76.2722 45.4515L81.4784 40.1909C82.5197 39.1388 84.1336 39.1388 85.1749 40.1909C86.2162 41.2431 86.2162 42.8738 85.1749 43.926L79.9686 49.1866C79.448 49.7126 78.7712 49.9756 78.1464 49.9756H78.0943Z" fill="#101112"/>
<path d="M91.1099 52.6059C90.4331 52.6059 89.7563 52.3428 89.2878 51.8168C88.2465 50.7646 88.2465 49.1339 89.2878 48.0817L128.335 8.62734C129.376 7.57523 130.99 7.57523 132.031 8.62734C133.072 9.67946 133.072 11.3102 132.031 12.3624L92.9842 51.8168C92.4636 52.3428 91.7868 52.6059 91.162 52.6059H91.1099Z" fill="#101112"/>
<path d="M106.728 68.3877C106.051 68.3877 105.375 68.1247 104.906 67.5986C103.865 66.5465 103.865 64.9157 104.906 63.8636L151.762 16.5183C152.804 15.4662 154.417 15.4662 155.459 16.5183C156.5 17.5705 156.5 19.2012 155.459 20.2534L108.602 67.5986C108.082 68.1247 107.405 68.3877 106.78 68.3877H106.728Z" fill="#101112"/>
<path d="M106.728 68.3876C106.051 68.3876 105.375 68.1246 104.906 67.5985L73.6686 36.035C72.6274 34.9829 72.6274 33.3521 73.6686 32.3L104.854 0.789088C105.895 -0.263029 107.509 -0.263029 108.55 0.789088L139.788 32.3526C140.829 33.4047 140.829 35.0355 139.788 36.0876L108.55 67.6511C108.03 68.1772 107.353 68.4402 106.728 68.4402V68.3876ZM79.1872 34.1938L106.728 62.0223L134.269 34.1938L106.728 6.36531L79.1872 34.1938Z" fill="#101112"/>
<path d="M122.347 52.606C121.671 52.606 120.994 52.3429 120.525 51.8169L89.2878 20.2534C88.2465 19.2012 88.2465 17.5705 89.2878 16.5183C90.329 15.4662 91.943 15.4662 92.9842 16.5183L124.222 48.0819C125.263 49.134 125.263 50.7648 124.222 51.8169C123.701 52.3429 123.024 52.606 122.399 52.606H122.347Z" fill="#101112"/>
<path d="M29.6759 43.6103L33.06 40.1909L27.8537 34.9303C26.9687 34.036 26.448 32.8261 26.448 31.5636C26.448 30.301 26.9166 29.0911 27.8537 28.1442C28.7908 27.1973 29.9362 26.7238 31.1857 26.7238C32.4352 26.7238 33.6327 27.1973 34.5177 28.1442L39.724 33.4048L43.108 29.9854C43.108 29.9854 43.3683 29.8276 43.4724 29.7224L38.1621 24.3566C34.4136 20.5689 27.9058 20.5163 24.0532 24.3566C22.1789 26.2504 21.1377 28.7755 21.1377 31.4584C21.1377 34.1413 22.1789 36.6663 24.0532 38.5602L29.3635 43.926C29.3635 43.926 29.5197 43.6629 29.6239 43.5577L29.6759 43.6103Z" fill="#101112"/>
<path d="M83.3008 105.685C81.2183 105.685 79.2399 104.844 77.7822 103.371L27.8542 52.9216C26.3964 51.4487 25.5635 49.4497 25.5635 47.3454C25.5635 45.2412 26.3964 43.2422 27.8542 41.7692L41.3384 28.1443C44.306 25.1458 49.4081 25.1458 52.3757 28.1443L102.304 78.5933C103.761 80.0663 104.594 82.0653 104.594 84.1695C104.594 86.2738 103.761 88.2728 102.304 89.7457L88.8195 103.371C87.3617 104.844 85.3833 105.685 83.3008 105.685ZM46.857 31.1428C46.1802 31.1428 45.5034 31.4059 45.0348 31.9319L31.5507 45.5568C31.0821 46.0303 30.7697 46.7142 30.7697 47.398C30.7697 48.0819 31.03 48.7658 31.5507 49.2392L81.4786 99.6883C82.4678 100.688 84.1859 100.688 85.1751 99.6883L98.6593 86.0633C99.1278 85.5899 99.4402 84.906 99.4402 84.2221C99.4402 83.5383 99.1799 82.8544 98.6593 82.3809L48.7313 31.9319C48.2627 31.4585 47.5859 31.1428 46.9091 31.1428H46.857Z" fill="#101112"/>
<path d="M2.60314 142.036C4.04081 142.036 5.20627 140.858 5.20627 139.406C5.20627 137.953 4.04081 136.775 2.60314 136.775C1.16546 136.775 0 137.953 0 139.406C0 140.858 1.16546 142.036 2.60314 142.036Z" fill="#101112"/>
<path d="M137.966 5.26059C139.404 5.26059 140.569 4.08296 140.569 2.63029C140.569 1.17762 139.404 0 137.966 0C136.529 0 135.363 1.17762 135.363 2.63029C135.363 4.08296 136.529 5.26059 137.966 5.26059Z" fill="#101112"/>
</svg>
